<mxfile host="app.diagrams.net" modified="2023-03-10T01:44:30.578Z" agent="5.0 (Windows NT 10.0; WOW64) AppleWebKit/537.36 (KHTML, like Gecko) Chrome/102.0.0.0 Safari/537.36" etag="z6AkIEPirnCqDXv-32VG" version="21.0.4" type="github">
  <diagram name="第 1 页" id="bNM0iy9fTfhDHSkOhZPR">
    <mxGraphModel dx="2899" dy="1070" grid="1" gridSize="10" guides="1" tooltips="1" connect="1" arrows="1" fold="1" page="1" pageScale="1" pageWidth="827" pageHeight="1169" math="0" shadow="0">
      <root>
        <mxCell id="0" />
        <mxCell id="1" parent="0" />
        <mxCell id="wx6U5e1Z4HBWarhHR9cE-13" value="" style="endArrow=none;html=1;rounded=0;" edge="1" parent="1">
          <mxGeometry width="50" height="50" relative="1" as="geometry">
            <mxPoint x="-110" y="390" as="sourcePoint" />
            <mxPoint x="230" y="390" as="targetPoint" />
            <Array as="points">
              <mxPoint x="-90" y="390" />
              <mxPoint x="-70" y="370" />
              <mxPoint x="-50" y="410" />
              <mxPoint x="-30" y="370" />
              <mxPoint x="-10" y="410" />
              <mxPoint x="10" y="370" />
              <mxPoint x="30" y="410" />
              <mxPoint x="50" y="370" />
              <mxPoint x="70" y="410" />
              <mxPoint x="90" y="370" />
              <mxPoint x="110" y="410" />
              <mxPoint x="130" y="370" />
              <mxPoint x="150" y="410" />
              <mxPoint x="170" y="370" />
              <mxPoint x="190" y="410" />
              <mxPoint x="210" y="390" />
            </Array>
          </mxGeometry>
        </mxCell>
        <mxCell id="wx6U5e1Z4HBWarhHR9cE-17" value="" style="group" vertex="1" connectable="0" parent="1">
          <mxGeometry x="220" y="370" width="510" height="200" as="geometry" />
        </mxCell>
        <mxCell id="wx6U5e1Z4HBWarhHR9cE-12" value="" style="endArrow=none;html=1;rounded=0;" edge="1" parent="wx6U5e1Z4HBWarhHR9cE-17">
          <mxGeometry width="50" height="50" relative="1" as="geometry">
            <mxPoint x="34" y="20" as="sourcePoint" />
            <mxPoint x="374" y="20" as="targetPoint" />
            <Array as="points">
              <mxPoint x="54" y="20" />
              <mxPoint x="74" />
              <mxPoint x="94" y="40" />
              <mxPoint x="114" />
              <mxPoint x="134" y="40" />
              <mxPoint x="154" />
              <mxPoint x="174" y="40" />
              <mxPoint x="194" />
              <mxPoint x="214" y="40" />
              <mxPoint x="234" />
              <mxPoint x="254" y="40" />
              <mxPoint x="274" />
              <mxPoint x="294" y="40" />
              <mxPoint x="314" />
              <mxPoint x="334" y="40" />
              <mxPoint x="354" y="20" />
            </Array>
          </mxGeometry>
        </mxCell>
        <mxCell id="wx6U5e1Z4HBWarhHR9cE-14" value="" style="ellipse;whiteSpace=wrap;html=1;aspect=fixed;fillColor=#1A1A1A;" vertex="1" parent="wx6U5e1Z4HBWarhHR9cE-17">
          <mxGeometry x="370" width="40" height="40" as="geometry" />
        </mxCell>
        <mxCell id="wx6U5e1Z4HBWarhHR9cE-16" value="" style="ellipse;whiteSpace=wrap;html=1;aspect=fixed;fillColor=#1A1A1A;" vertex="1" parent="wx6U5e1Z4HBWarhHR9cE-17">
          <mxGeometry width="40" height="40" as="geometry" />
        </mxCell>
        <mxCell id="wx6U5e1Z4HBWarhHR9cE-18" value="" style="group;rotation=58;" vertex="1" connectable="0" parent="wx6U5e1Z4HBWarhHR9cE-17">
          <mxGeometry x="-90" y="160" width="410" height="40" as="geometry" />
        </mxCell>
        <mxCell id="wx6U5e1Z4HBWarhHR9cE-19" value="" style="endArrow=none;html=1;rounded=0;" edge="1" parent="wx6U5e1Z4HBWarhHR9cE-18">
          <mxGeometry width="50" height="50" relative="1" as="geometry">
            <mxPoint x="115" y="-125" as="sourcePoint" />
            <mxPoint x="294" y="164" as="targetPoint" />
            <Array as="points">
              <mxPoint x="125" y="-109" />
              <mxPoint x="153" y="-102" />
              <mxPoint x="129" y="-63" />
              <mxPoint x="174" y="-68" />
              <mxPoint x="151" y="-29" />
              <mxPoint x="195" y="-34" />
              <mxPoint x="171" y="4" />
              <mxPoint x="216" />
              <mxPoint x="193" y="38" />
              <mxPoint x="237" y="34" />
              <mxPoint x="214" y="72" />
              <mxPoint x="259" y="68" />
              <mxPoint x="235" y="106" />
              <mxPoint x="279" y="101" />
              <mxPoint x="257" y="140" />
              <mxPoint x="284" y="147" />
            </Array>
          </mxGeometry>
        </mxCell>
        <mxCell id="wx6U5e1Z4HBWarhHR9cE-20" value="" style="ellipse;whiteSpace=wrap;html=1;aspect=fixed;fillColor=#1A1A1A;rotation=58;" vertex="1" parent="wx6U5e1Z4HBWarhHR9cE-18">
          <mxGeometry x="283" y="157" width="40" height="40" as="geometry" />
        </mxCell>
        <mxCell id="wx6U5e1Z4HBWarhHR9cE-21" value="" style="ellipse;whiteSpace=wrap;html=1;aspect=fixed;fillColor=#1A1A1A;rotation=58;" vertex="1" parent="wx6U5e1Z4HBWarhHR9cE-18">
          <mxGeometry x="87" y="-157" width="40" height="40" as="geometry" />
        </mxCell>
        <mxCell id="wx6U5e1Z4HBWarhHR9cE-22" value="" style="group;rotation=-240;" vertex="1" connectable="0" parent="wx6U5e1Z4HBWarhHR9cE-17">
          <mxGeometry x="100" y="160" width="410" height="40" as="geometry" />
        </mxCell>
        <mxCell id="wx6U5e1Z4HBWarhHR9cE-23" value="" style="endArrow=none;html=1;rounded=0;" edge="1" parent="wx6U5e1Z4HBWarhHR9cE-22">
          <mxGeometry width="50" height="50" relative="1" as="geometry">
            <mxPoint x="291" y="-128" as="sourcePoint" />
            <mxPoint x="120" y="166" as="targetPoint" />
            <Array as="points">
              <mxPoint x="281" y="-111" />
              <mxPoint x="288" y="-83" />
              <mxPoint x="243" y="-86" />
              <mxPoint x="268" y="-49" />
              <mxPoint x="223" y="-51" />
              <mxPoint x="248" y="-14" />
              <mxPoint x="203" y="-17" />
              <mxPoint x="228" y="20" />
              <mxPoint x="183" y="18" />
              <mxPoint x="208" y="55" />
              <mxPoint x="163" y="52" />
              <mxPoint x="188" y="90" />
              <mxPoint x="143" y="87" />
              <mxPoint x="168" y="124" />
              <mxPoint x="123" y="122" />
              <mxPoint x="130" y="149" />
            </Array>
          </mxGeometry>
        </mxCell>
        <mxCell id="wx6U5e1Z4HBWarhHR9cE-24" value="" style="ellipse;whiteSpace=wrap;html=1;aspect=fixed;fillColor=#1A1A1A;rotation=-240;" vertex="1" parent="wx6U5e1Z4HBWarhHR9cE-22">
          <mxGeometry x="92" y="160" width="40" height="40" as="geometry" />
        </mxCell>
        <mxCell id="wx6U5e1Z4HBWarhHR9cE-25" value="" style="ellipse;whiteSpace=wrap;html=1;aspect=fixed;fillColor=#1A1A1A;rotation=-240;" vertex="1" parent="wx6U5e1Z4HBWarhHR9cE-22">
          <mxGeometry x="278" y="-160" width="40" height="40" as="geometry" />
        </mxCell>
        <mxCell id="wx6U5e1Z4HBWarhHR9cE-29" value="" style="group;rotation=45;" vertex="1" connectable="0" parent="1">
          <mxGeometry x="540" y="500" width="410" height="40" as="geometry" />
        </mxCell>
        <mxCell id="wx6U5e1Z4HBWarhHR9cE-30" value="" style="endArrow=none;html=1;rounded=0;" edge="1" parent="wx6U5e1Z4HBWarhHR9cE-29">
          <mxGeometry width="50" height="50" relative="1" as="geometry">
            <mxPoint x="84" y="-101" as="sourcePoint" />
            <mxPoint x="324" y="140" as="targetPoint" />
            <Array as="points">
              <mxPoint x="98" y="-87" />
              <mxPoint x="127" y="-87" />
              <mxPoint x="112" y="-44" />
              <mxPoint x="155" y="-59" />
              <mxPoint x="141" y="-16" />
              <mxPoint x="184" y="-30" />
              <mxPoint x="169" y="12" />
              <mxPoint x="211" y="-3" />
              <mxPoint x="198" y="41" />
              <mxPoint x="240" y="26" />
              <mxPoint x="225" y="68" />
              <mxPoint x="268" y="55" />
              <mxPoint x="254" y="97" />
              <mxPoint x="296" y="82" />
              <mxPoint x="283" y="126" />
              <mxPoint x="311" y="126" />
            </Array>
          </mxGeometry>
        </mxCell>
        <mxCell id="wx6U5e1Z4HBWarhHR9cE-31" value="" style="ellipse;whiteSpace=wrap;html=1;aspect=fixed;fillColor=#1A1A1A;rotation=45;" vertex="1" parent="wx6U5e1Z4HBWarhHR9cE-29">
          <mxGeometry x="316" y="131" width="40" height="40" as="geometry" />
        </mxCell>
        <mxCell id="wx6U5e1Z4HBWarhHR9cE-32" value="" style="ellipse;whiteSpace=wrap;html=1;aspect=fixed;fillColor=#1A1A1A;rotation=45;" vertex="1" parent="wx6U5e1Z4HBWarhHR9cE-29">
          <mxGeometry x="54" y="-131" width="40" height="40" as="geometry" />
        </mxCell>
        <mxCell id="wx6U5e1Z4HBWarhHR9cE-33" value="" style="group;rotation=90;" vertex="1" connectable="0" parent="1">
          <mxGeometry x="230" y="870" width="410" height="40" as="geometry" />
        </mxCell>
        <mxCell id="wx6U5e1Z4HBWarhHR9cE-34" value="" style="endArrow=none;html=1;rounded=0;" edge="1" parent="wx6U5e1Z4HBWarhHR9cE-33">
          <mxGeometry width="50" height="50" relative="1" as="geometry">
            <mxPoint x="205" y="-151" as="sourcePoint" />
            <mxPoint x="204" y="189" as="targetPoint" />
            <Array as="points">
              <mxPoint x="205" y="-131" />
              <mxPoint x="225" y="-111" />
              <mxPoint x="185" y="-91" />
              <mxPoint x="225" y="-71" />
              <mxPoint x="185" y="-50" />
              <mxPoint x="225" y="-31" />
              <mxPoint x="185" y="-11" />
              <mxPoint x="225" y="8" />
              <mxPoint x="185" y="29" />
              <mxPoint x="225" y="49" />
              <mxPoint x="185" y="69" />
              <mxPoint x="225" y="89" />
              <mxPoint x="185" y="109" />
              <mxPoint x="225" y="129" />
              <mxPoint x="185" y="149" />
              <mxPoint x="205" y="169" />
            </Array>
          </mxGeometry>
        </mxCell>
        <mxCell id="wx6U5e1Z4HBWarhHR9cE-36" value="" style="ellipse;whiteSpace=wrap;html=1;aspect=fixed;fillColor=#1A1A1A;rotation=90;" vertex="1" parent="wx6U5e1Z4HBWarhHR9cE-33">
          <mxGeometry x="186" y="-185" width="40" height="40" as="geometry" />
        </mxCell>
        <mxCell id="wx6U5e1Z4HBWarhHR9cE-37" value="" style="group;rotation=-255;" vertex="1" connectable="0" parent="1">
          <mxGeometry x="460" y="190" width="410" height="40" as="geometry" />
        </mxCell>
        <mxCell id="wx6U5e1Z4HBWarhHR9cE-38" value="" style="endArrow=none;html=1;rounded=0;" edge="1" parent="wx6U5e1Z4HBWarhHR9cE-37">
          <mxGeometry width="50" height="50" relative="1" as="geometry">
            <mxPoint x="250" y="-145" as="sourcePoint" />
            <mxPoint x="161" y="183" as="targetPoint" />
            <Array as="points">
              <mxPoint x="245" y="-126" />
              <mxPoint x="259" y="-101" />
              <mxPoint x="214" y="-92" />
              <mxPoint x="248" y="-63" />
              <mxPoint x="204" y="-53" />
              <mxPoint x="238" y="-24" />
              <mxPoint x="193" y="-15" />
              <mxPoint x="227" y="14" />
              <mxPoint x="183" y="24" />
              <mxPoint x="217" y="53" />
              <mxPoint x="173" y="62" />
              <mxPoint x="207" y="92" />
              <mxPoint x="162" y="101" />
              <mxPoint x="196" y="130" />
              <mxPoint x="152" y="140" />
              <mxPoint x="166" y="164" />
            </Array>
          </mxGeometry>
        </mxCell>
        <mxCell id="wx6U5e1Z4HBWarhHR9cE-39" value="" style="ellipse;whiteSpace=wrap;html=1;aspect=fixed;fillColor=#1A1A1A;rotation=-255;" vertex="1" parent="wx6U5e1Z4HBWarhHR9cE-37">
          <mxGeometry x="137" y="179" width="40" height="40" as="geometry" />
        </mxCell>
        <mxCell id="wx6U5e1Z4HBWarhHR9cE-40" value="" style="ellipse;whiteSpace=wrap;html=1;aspect=fixed;fillColor=#1A1A1A;rotation=-255;" vertex="1" parent="wx6U5e1Z4HBWarhHR9cE-37">
          <mxGeometry x="233" y="-179" width="40" height="40" as="geometry" />
        </mxCell>
        <mxCell id="wx6U5e1Z4HBWarhHR9cE-41" value="" style="group;rotation=75;" vertex="1" connectable="0" parent="1">
          <mxGeometry x="-10" y="190" width="410" height="40" as="geometry" />
        </mxCell>
        <mxCell id="wx6U5e1Z4HBWarhHR9cE-42" value="" style="endArrow=none;html=1;rounded=0;" edge="1" parent="wx6U5e1Z4HBWarhHR9cE-41">
          <mxGeometry width="50" height="50" relative="1" as="geometry">
            <mxPoint x="161" y="-145" as="sourcePoint" />
            <mxPoint x="248" y="183" as="targetPoint" />
            <Array as="points">
              <mxPoint x="166" y="-126" />
              <mxPoint x="191" y="-112" />
              <mxPoint x="157" y="-82" />
              <mxPoint x="201" y="-73" />
              <mxPoint x="168" y="-43" />
              <mxPoint x="211" y="-34" />
              <mxPoint x="177" y="-5" />
              <mxPoint x="221" y="4" />
              <mxPoint x="188" y="34" />
              <mxPoint x="232" y="43" />
              <mxPoint x="198" y="72" />
              <mxPoint x="242" y="82" />
              <mxPoint x="209" y="111" />
              <mxPoint x="252" y="120" />
              <mxPoint x="219" y="150" />
              <mxPoint x="243" y="164" />
            </Array>
          </mxGeometry>
        </mxCell>
        <mxCell id="wx6U5e1Z4HBWarhHR9cE-43" value="" style="ellipse;whiteSpace=wrap;html=1;aspect=fixed;fillColor=#1A1A1A;rotation=75;" vertex="1" parent="wx6U5e1Z4HBWarhHR9cE-41">
          <mxGeometry x="232" y="179" width="40" height="40" as="geometry" />
        </mxCell>
        <mxCell id="wx6U5e1Z4HBWarhHR9cE-44" value="" style="ellipse;whiteSpace=wrap;html=1;aspect=fixed;fillColor=#1A1A1A;rotation=75;" vertex="1" parent="wx6U5e1Z4HBWarhHR9cE-41">
          <mxGeometry x="138" y="-179" width="40" height="40" as="geometry" />
        </mxCell>
        <mxCell id="wx6U5e1Z4HBWarhHR9cE-73" value="" style="curved=1;endArrow=none;html=1;rounded=0;entryX=1;entryY=0.5;entryDx=0;entryDy=0;strokeWidth=3;endFill=0;exitX=0.5;exitY=1;exitDx=0;exitDy=0;" edge="1" parent="1" target="wx6U5e1Z4HBWarhHR9cE-62">
          <mxGeometry width="50" height="50" relative="1" as="geometry">
            <mxPoint x="-370" y="860" as="sourcePoint" />
            <mxPoint x="-140" y="490" as="targetPoint" />
            <Array as="points">
              <mxPoint x="-580" y="840" />
              <mxPoint x="-810" y="730" />
              <mxPoint x="-1030" y="650" />
              <mxPoint x="-140" y="540" />
              <mxPoint x="-780" y="850" />
            </Array>
          </mxGeometry>
        </mxCell>
        <mxCell id="wx6U5e1Z4HBWarhHR9cE-74" value="" style="curved=1;endArrow=none;html=1;rounded=0;entryX=0.5;entryY=1;entryDx=0;entryDy=0;endFill=0;strokeWidth=3;exitX=1;exitY=0;exitDx=0;exitDy=0;" edge="1" parent="1" target="wx6U5e1Z4HBWarhHR9cE-63">
          <mxGeometry width="50" height="50" relative="1" as="geometry">
            <mxPoint x="-955.8578643762694" y="805.8578643762694" as="sourcePoint" />
            <mxPoint x="-140" y="490" as="targetPoint" />
            <Array as="points">
              <mxPoint x="-700" y="920" />
              <mxPoint x="-650" y="720" />
              <mxPoint x="-990" y="660" />
              <mxPoint x="-1010" y="660" />
              <mxPoint x="-1020" y="630" />
              <mxPoint x="-1090" y="360" />
              <mxPoint x="-1070" y="170" />
              <mxPoint x="-190" y="490" />
              <mxPoint x="-1100" y="640" />
            </Array>
          </mxGeometry>
        </mxCell>
        <mxCell id="wx6U5e1Z4HBWarhHR9cE-75" value="" style="curved=1;endArrow=none;html=1;rounded=0;exitX=1;exitY=0;exitDx=0;exitDy=0;strokeWidth=3;endFill=0;" edge="1" parent="1" target="wx6U5e1Z4HBWarhHR9cE-64">
          <mxGeometry width="50" height="50" relative="1" as="geometry">
            <mxPoint x="-355.8578643762694" y="825.8578643762694" as="sourcePoint" />
            <mxPoint x="-140" y="490" as="targetPoint" />
            <Array as="points">
              <mxPoint x="-140" y="540" />
              <mxPoint x="-190" y="490" />
            </Array>
          </mxGeometry>
        </mxCell>
        <mxCell id="wx6U5e1Z4HBWarhHR9cE-79" value="" style="rounded=0;whiteSpace=wrap;html=1;fillStyle=hatch;" vertex="1" parent="1">
          <mxGeometry x="-110" y="10" width="1000" height="1050" as="geometry" />
        </mxCell>
      </root>
    </mxGraphModel>
  </diagram>
</mxfile>
